REM DIRINDEX 1\2,1\3,1\4,1\5
REM DIRNAME cjc004,folder01,folder02,folder03,folder04
TITLE ""
FILE "1Q_t_1510-1519.mp3" MP3
  TRACK 01 AUDIO
    TITLE "3:cjc004_5436"
    INDEX 01 00:00:00
  TRACK 02 AUDIO
    TITLE "0:"
    INDEX 01 00:01:05
  TRACK 03 AUDIO
    TITLE "4:cjc004_5437"
    INDEX 01 00:01:32
  TRACK 04 AUDIO
    TITLE "0:"
    INDEX 01 00:02:40
  TRACK 05 AUDIO
    TITLE "5:cjc004_5438"
    INDEX 01 00:02:67
  TRACK 06 AUDIO
    TITLE "0:"
    INDEX 01 00:06:31
  TRACK 07 AUDIO
    TITLE "3:cjc004_5439"
    INDEX 01 00:07:13
  TRACK 08 AUDIO
    TITLE "0:"
    INDEX 01 00:08:46
  TRACK 09 AUDIO
    TITLE "4:cjc004_5440"
    INDEX 01 00:09:00
  TRACK 10 AUDIO
    TITLE "0:"
    INDEX 01 00:10:14
  TRACK 11 AUDIO
    TITLE "5:cjc004_5441"
    INDEX 01 00:10:41
  TRACK 12 AUDIO
    TITLE "0:"
    INDEX 01 00:15:11
  TRACK 13 AUDIO
    TITLE "3:cjc004_5442"
    INDEX 01 00:15:64
  TRACK 14 AUDIO
    TITLE "0:"
    INDEX 01 00:17:04
  TRACK 15 AUDIO
    TITLE "4:cjc004_5443"
    INDEX 01 00:17:35
  TRACK 16 AUDIO
    TITLE "0:"
    INDEX 01 00:18:52
  TRACK 17 AUDIO
    TITLE "5:cjc004_5444"
    INDEX 01 00:19:05
  TRACK 18 AUDIO
    TITLE "0:"
    INDEX 01 00:24:43
  TRACK 19 AUDIO
    TITLE "3:cjc004_5445"
    INDEX 01 00:25:27
  TRACK 20 AUDIO
    TITLE "0:"
    INDEX 01 00:26:50
  TRACK 21 AUDIO
    TITLE "4:cjc004_5446"
    INDEX 01 00:27:02
  TRACK 22 AUDIO
    TITLE "0:"
    INDEX 01 00:28:13
  TRACK 23 AUDIO
    TITLE "5:cjc004_5447"
    INDEX 01 00:28:37
  TRACK 24 AUDIO
    TITLE "0:"
    INDEX 01 00:33:40
  TRACK 25 AUDIO
    TITLE "3:cjc004_5448"
    INDEX 01 00:34:30
  TRACK 26 AUDIO
    TITLE "0:"
    INDEX 01 00:35:53
  TRACK 27 AUDIO
    TITLE "4:cjc004_5449"
    INDEX 01 00:36:09
  TRACK 28 AUDIO
    TITLE "0:"
    INDEX 01 00:37:73
  TRACK 29 AUDIO
    TITLE "5:cjc004_5450"
    INDEX 01 00:38:26
  TRACK 30 AUDIO
    TITLE "0:"
    INDEX 01 00:43:13
  TRACK 31 AUDIO
    TITLE "3:cjc004_5451"
    INDEX 01 00:43:68
  TRACK 32 AUDIO
    TITLE "0:"
    INDEX 01 00:45:14
  TRACK 33 AUDIO
    TITLE "4:cjc004_5452"
    INDEX 01 00:45:41
  TRACK 34 AUDIO
    TITLE "0:"
    INDEX 01 00:46:68
  TRACK 35 AUDIO
    TITLE "5:cjc004_5453"
    INDEX 01 00:47:21
  TRACK 36 AUDIO
    TITLE "0:"
    INDEX 01 00:52:73
  TRACK 37 AUDIO
    TITLE "3:cjc004_5454"
    INDEX 01 00:53:55
  TRACK 38 AUDIO
    TITLE "0:"
    INDEX 01 00:55:03
  TRACK 39 AUDIO
    TITLE "4:cjc004_5455"
    INDEX 01 00:55:30
  TRACK 40 AUDIO
    TITLE "0:"
    INDEX 01 00:56:55
  TRACK 41 AUDIO
    TITLE "5:cjc004_5456"
    INDEX 01 00:57:11
  TRACK 42 AUDIO
    TITLE "0:"
    INDEX 01 01:02:26
  TRACK 43 AUDIO
    TITLE "3:cjc004_5457"
    INDEX 01 01:03:02
  TRACK 44 AUDIO
    TITLE "0:"
    INDEX 01 01:04:01
  TRACK 45 AUDIO
    TITLE "4:cjc004_5458"
    INDEX 01 01:04:33
  TRACK 46 AUDIO
    TITLE "0:"
    INDEX 01 01:06:10
  TRACK 47 AUDIO
    TITLE "5:cjc004_5459"
    INDEX 01 01:06:34
  TRACK 48 AUDIO
    TITLE "0:"
    INDEX 01 01:10:31
  TRACK 49 AUDIO
    TITLE "3:cjc004_5460"
    INDEX 01 01:11:09
  TRACK 50 AUDIO
    TITLE "0:"
    INDEX 01 01:12:23
  TRACK 51 AUDIO
    TITLE "4:cjc004_5461"
    INDEX 01 01:12:52
  TRACK 52 AUDIO
    TITLE "0:"
    INDEX 01 01:13:67
  TRACK 53 AUDIO
    TITLE "5:cjc004_5462"
    INDEX 01 01:14:16
  TRACK 54 AUDIO
    TITLE "0:"
    INDEX 01 01:18:53
  TRACK 55 AUDIO
    TITLE "3:cjc004_5463"
    INDEX 01 01:19:32
  TRACK 56 AUDIO
    TITLE "0:"
    INDEX 01 01:20:44
  TRACK 57 AUDIO
    TITLE "4:cjc004_5464"
    INDEX 01 01:20:69
  TRACK 58 AUDIO
    TITLE "0:"
    INDEX 01 01:21:70
  TRACK 59 AUDIO
    TITLE "5:cjc004_5465"
    INDEX 01 01:22:25
  TRACK 60 AUDIO
    TITLE "0:"
    INDEX 01 01:25:64
